<svg xmlns="http://www.w3.org/2000/svg" viewBox="0 0 1000 200" width="1000" height="200" role="img" aria-label="Decorative animated amber dot field">
<title>decorative dot field</title>
<defs>
  <pattern id="sl" width="3" height="3" patternUnits="userSpaceOnUse">
    <rect width="3" height="1.5" fill="#000" opacity="0.26"/>
  </pattern>
  <radialGradient id="vig" cx="50%" cy="50%" r="76%">
    <stop offset="56%" stop-color="#000" stop-opacity="0"/>
    <stop offset="100%" stop-color="#000" stop-opacity="0.62"/>
  </radialGradient>
  <linearGradient id="sweep" x1="0" y1="0" x2="1" y2="0">
    <stop offset="0%"   stop-color="#ffd166" stop-opacity="0"/>
    <stop offset="50%"  stop-color="#ffe9b0" stop-opacity="0.10"/>
    <stop offset="100%" stop-color="#ffd166" stop-opacity="0"/>
  </linearGradient>
  <clipPath id="cp"><rect x="8" y="8" width="984" height="184" rx="10"/></clipPath>
</defs>
<style>
  .d { fill: #3d2600; animation: pulse 4.6s ease-in-out infinite; }
  @keyframes pulse {
    0%, 100% { fill: #33200a; }
    46%      { fill: #6b4200; }
    54%      { fill: #6b4200; }
  }
  .t1 { animation-name: p1; }
  .t2 { animation-name: p2; }
  .t3 { animation-name: p3; }
  @keyframes p1 { 0%,100% { fill:#33200a; } 50% { fill:#c98a00; } }
  @keyframes p2 { 0%,100% { fill:#3d2600; } 50% { fill:#ffb000; } }
  @keyframes p3 { 0%,100% { fill:#452b00; } 50% { fill:#ffd166; } }

  /* Twinkle rides on top of the wave via a second, coprime-period animation. */
  .k { animation-duration: 4.6s, 7.3s; animation-name: p3, flare;
       animation-timing-function: ease-in-out, ease-in-out;
       animation-iteration-count: infinite, infinite; }
  @keyframes flare { 0%,88%,100% { opacity: 1; } 94% { opacity: 0.25; } }

  .sweep { animation: sw 6.2s linear infinite; }
  @keyframes sw { 0% { transform: translateX(-320px); } 100% { transform: translateX(1000px); } }

  .scan { animation: drift 1.1s linear infinite; }
  @keyframes drift { to { transform: translateY(3px); } }

  .tube { animation: fl 4.9s ease-in-out infinite; }
  @keyframes fl { 0%,100%{opacity:1} 44%{opacity:.965} 46%{opacity:1} 78%{opacity:.945} 80%{opacity:1} }
</style>
<g class="tube">
  <rect width="1000" height="200" rx="12" fill="#0d0900"/>
  <rect x="8" y="8" width="984" height="184" rx="10" fill="#140c00" stroke="#ffb000" stroke-opacity="0.30"/>
  <g clip-path="url(#cp)">
    <rect class="d t2" x="46.4" y="32.5" width="24" height="24" rx="6" style="animation-delay:-0.04s"/>
    <rect class="d t2" x="83.2" y="32.5" width="24" height="24" rx="6" style="animation-delay:-0.18s"/>
    <rect class="d t0" x="120" y="32.5" width="24" height="24" rx="6" style="animation-delay:-0.33s"/>
    <rect class="d t0" x="156.8" y="32.5" width="24" height="24" rx="6" style="animation-delay:-0.48s"/>
    <rect class="d t3" x="193.6" y="32.5" width="24" height="24" rx="6" style="animation-delay:-0.56s"/>
    <rect class="d t3 k" x="230.4" y="32.5" width="24" height="24" rx="6" style="animation-delay:-0.69s"/>
    <rect class="d t0" x="267.2" y="32.5" width="24" height="24" rx="6" style="animation-delay:-0.86s"/>
    <rect class="d t1" x="304" y="32.5" width="24" height="24" rx="6" style="animation-delay:-0.97s"/>
    <rect class="d t0 k" x="340.8" y="32.5" width="24" height="24" rx="6" style="animation-delay:-1s"/>
    <rect class="d t3" x="377.6" y="32.5" width="24" height="24" rx="6" style="animation-delay:-1.13s"/>
    <rect class="d t1" x="414.4" y="32.5" width="24" height="24" rx="6" style="animation-delay:-1.24s"/>
    <rect class="d t0" x="451.2" y="32.5" width="24" height="24" rx="6" style="animation-delay:-1.47s"/>
    <rect class="d t1" x="488" y="32.5" width="24" height="24" rx="6" style="animation-delay:-1.52s"/>
    <rect class="d t0" x="524.8" y="32.5" width="24" height="24" rx="6" style="animation-delay:-1.61s"/>
    <rect class="d t0" x="561.6" y="32.5" width="24" height="24" rx="6" style="animation-delay:-1.68s"/>
    <rect class="d t0" x="598.4" y="32.5" width="24" height="24" rx="6" style="animation-delay:-1.9s"/>
    <rect class="d t1 k" x="635.2" y="32.5" width="24" height="24" rx="6" style="animation-delay:-2.04s"/>
    <rect class="d t1" x="672" y="32.5" width="24" height="24" rx="6" style="animation-delay:-2.07s"/>
    <rect class="d t2" x="708.8" y="32.5" width="24" height="24" rx="6" style="animation-delay:-2.22s"/>
    <rect class="d t0 k" x="745.6" y="32.5" width="24" height="24" rx="6" style="animation-delay:-2.3s"/>
    <rect class="d t2" x="782.4" y="32.5" width="24" height="24" rx="6" style="animation-delay:-2.5s"/>
    <rect class="d t3" x="819.2" y="32.5" width="24" height="24" rx="6" style="animation-delay:-2.67s"/>
    <rect class="d t0" x="856" y="32.5" width="24" height="24" rx="6" style="animation-delay:-2.71s"/>
    <rect class="d t0" x="892.8" y="32.5" width="24" height="24" rx="6" style="animation-delay:-2.81s"/>
    <rect class="d t0" x="929.6" y="32.5" width="24" height="24" rx="6" style="animation-delay:-2.99s"/>
    <rect class="d t1" x="46.4" y="69.5" width="24" height="24" rx="6" style="animation-delay:-0.35s"/>
    <rect class="d t2" x="83.2" y="69.5" width="24" height="24" rx="6" style="animation-delay:-0.42s"/>
    <rect class="d t0" x="120" y="69.5" width="24" height="24" rx="6" style="animation-delay:-0.57s"/>
    <rect class="d t2" x="156.8" y="69.5" width="24" height="24" rx="6" style="animation-delay:-0.58s"/>
    <rect class="d t0" x="193.6" y="69.5" width="24" height="24" rx="6" style="animation-delay:-0.84s"/>
    <rect class="d t0" x="230.4" y="69.5" width="24" height="24" rx="6" style="animation-delay:-0.83s"/>
    <rect class="d t0" x="267.2" y="69.5" width="24" height="24" rx="6" style="animation-delay:-1.06s"/>
    <rect class="d t1" x="304" y="69.5" width="24" height="24" rx="6" style="animation-delay:-1.15s"/>
    <rect class="d t1" x="340.8" y="69.5" width="24" height="24" rx="6" style="animation-delay:-1.22s"/>
    <rect class="d t1" x="377.6" y="69.5" width="24" height="24" rx="6" style="animation-delay:-1.34s"/>
    <rect class="d t1" x="414.4" y="69.5" width="24" height="24" rx="6" style="animation-delay:-1.51s"/>
    <rect class="d t2" x="451.2" y="69.5" width="24" height="24" rx="6" style="animation-delay:-1.55s"/>
    <rect class="d t1" x="488" y="69.5" width="24" height="24" rx="6" style="animation-delay:-1.73s"/>
    <rect class="d t0" x="524.8" y="69.5" width="24" height="24" rx="6" style="animation-delay:-1.92s"/>
    <rect class="d t2" x="561.6" y="69.5" width="24" height="24" rx="6" style="animation-delay:-2.04s"/>
    <rect class="d t1" x="598.4" y="69.5" width="24" height="24" rx="6" style="animation-delay:-2.06s"/>
    <rect class="d t0" x="635.2" y="69.5" width="24" height="24" rx="6" style="animation-delay:-2.19s"/>
    <rect class="d t0" x="672" y="69.5" width="24" height="24" rx="6" style="animation-delay:-2.26s"/>
    <rect class="d t0" x="708.8" y="69.5" width="24" height="24" rx="6" style="animation-delay:-2.46s"/>
    <rect class="d t0" x="745.6" y="69.5" width="24" height="24" rx="6" style="animation-delay:-2.54s"/>
    <rect class="d t1 k" x="782.4" y="69.5" width="24" height="24" rx="6" style="animation-delay:-2.7s"/>
    <rect class="d t0" x="819.2" y="69.5" width="24" height="24" rx="6" style="animation-delay:-2.83s"/>
    <rect class="d t1" x="856" y="69.5" width="24" height="24" rx="6" style="animation-delay:-2.9s"/>
    <rect class="d t2" x="892.8" y="69.5" width="24" height="24" rx="6" style="animation-delay:-3.12s"/>
    <rect class="d t0" x="929.6" y="69.5" width="24" height="24" rx="6" style="animation-delay:-3.15s"/>
    <rect class="d t0" x="46.4" y="106.5" width="24" height="24" rx="6" style="animation-delay:-0.56s"/>
    <rect class="d t1" x="83.2" y="106.5" width="24" height="24" rx="6" style="animation-delay:-0.6s"/>
    <rect class="d t3" x="120" y="106.5" width="24" height="24" rx="6" style="animation-delay:-0.75s"/>
    <rect class="d t2" x="156.8" y="106.5" width="24" height="24" rx="6" style="animation-delay:-0.91s"/>
    <rect class="d t3" x="193.6" y="106.5" width="24" height="24" rx="6" style="animation-delay:-0.99s"/>
    <rect class="d t0" x="230.4" y="106.5" width="24" height="24" rx="6" style="animation-delay:-1.05s"/>
    <rect class="d t1" x="267.2" y="106.5" width="24" height="24" rx="6" style="animation-delay:-1.25s"/>
    <rect class="d t1" x="304" y="106.5" width="24" height="24" rx="6" style="animation-delay:-1.36s"/>
    <rect class="d t2" x="340.8" y="106.5" width="24" height="24" rx="6" style="animation-delay:-1.5s"/>
    <rect class="d t2" x="377.6" y="106.5" width="24" height="24" rx="6" style="animation-delay:-1.53s"/>
    <rect class="d t0" x="414.4" y="106.5" width="24" height="24" rx="6" style="animation-delay:-1.72s"/>
    <rect class="d t1" x="451.2" y="106.5" width="24" height="24" rx="6" style="animation-delay:-1.77s"/>
    <rect class="d t0" x="488" y="106.5" width="24" height="24" rx="6" style="animation-delay:-1.96s"/>
    <rect class="d t1" x="524.8" y="106.5" width="24" height="24" rx="6" style="animation-delay:-2.14s"/>
    <rect class="d t1" x="561.6" y="106.5" width="24" height="24" rx="6" style="animation-delay:-2.13s"/>
    <rect class="d t0" x="598.4" y="106.5" width="24" height="24" rx="6" style="animation-delay:-2.37s"/>
    <rect class="d t0" x="635.2" y="106.5" width="24" height="24" rx="6" style="animation-delay:-2.42s"/>
    <rect class="d t0" x="672" y="106.5" width="24" height="24" rx="6" style="animation-delay:-2.64s"/>
    <rect class="d t1 k" x="708.8" y="106.5" width="24" height="24" rx="6" style="animation-delay:-2.65s"/>
    <rect class="d t2" x="745.6" y="106.5" width="24" height="24" rx="6" style="animation-delay:-2.75s"/>
    <rect class="d t1" x="782.4" y="106.5" width="24" height="24" rx="6" style="animation-delay:-2.88s"/>
    <rect class="d t1" x="819.2" y="106.5" width="24" height="24" rx="6" style="animation-delay:-3.09s"/>
    <rect class="d t0" x="856" y="106.5" width="24" height="24" rx="6" style="animation-delay:-3.16s"/>
    <rect class="d t1" x="892.8" y="106.5" width="24" height="24" rx="6" style="animation-delay:-3.32s"/>
    <rect class="d t1" x="929.6" y="106.5" width="24" height="24" rx="6" style="animation-delay:-3.37s"/>
    <rect class="d t0 k" x="46.4" y="143.5" width="24" height="24" rx="6" style="animation-delay:-0.74s"/>
    <rect class="d t1" x="83.2" y="143.5" width="24" height="24" rx="6" style="animation-delay:-0.91s"/>
    <rect class="d t0" x="120" y="143.5" width="24" height="24" rx="6" style="animation-delay:-1.06s"/>
    <rect class="d t2" x="156.8" y="143.5" width="24" height="24" rx="6" style="animation-delay:-1.08s"/>
    <rect class="d t0 k" x="193.6" y="143.5" width="24" height="24" rx="6" style="animation-delay:-1.15s"/>
    <rect class="d t0" x="230.4" y="143.5" width="24" height="24" rx="6" style="animation-delay:-1.33s"/>
    <rect class="d t2" x="267.2" y="143.5" width="24" height="24" rx="6" style="animation-delay:-1.4s"/>
    <rect class="d t2" x="304" y="143.5" width="24" height="24" rx="6" style="animation-delay:-1.64s"/>
    <rect class="d t0" x="340.8" y="143.5" width="24" height="24" rx="6" style="animation-delay:-1.73s"/>
    <rect class="d t1" x="377.6" y="143.5" width="24" height="24" rx="6" style="animation-delay:-1.82s"/>
    <rect class="d t3" x="414.4" y="143.5" width="24" height="24" rx="6" style="animation-delay:-1.9s"/>
    <rect class="d t0" x="451.2" y="143.5" width="24" height="24" rx="6" style="animation-delay:-1.98s"/>
    <rect class="d t2 k" x="488" y="143.5" width="24" height="24" rx="6" style="animation-delay:-2.2s"/>
    <rect class="d t1" x="524.8" y="143.5" width="24" height="24" rx="6" style="animation-delay:-2.36s"/>
    <rect class="d t1" x="561.6" y="143.5" width="24" height="24" rx="6" style="animation-delay:-2.34s"/>
    <rect class="d t0 k" x="598.4" y="143.5" width="24" height="24" rx="6" style="animation-delay:-2.58s"/>
    <rect class="d t0" x="635.2" y="143.5" width="24" height="24" rx="6" style="animation-delay:-2.64s"/>
    <rect class="d t0" x="672" y="143.5" width="24" height="24" rx="6" style="animation-delay:-2.79s"/>
    <rect class="d t1" x="708.8" y="143.5" width="24" height="24" rx="6" style="animation-delay:-2.91s"/>
    <rect class="d t3" x="745.6" y="143.5" width="24" height="24" rx="6" style="animation-delay:-2.95s"/>
    <rect class="d t0" x="782.4" y="143.5" width="24" height="24" rx="6" style="animation-delay:-3.19s"/>
    <rect class="d t0 k" x="819.2" y="143.5" width="24" height="24" rx="6" style="animation-delay:-3.29s"/>
    <rect class="d t3" x="856" y="143.5" width="24" height="24" rx="6" style="animation-delay:-3.41s"/>
    <rect class="d t0 k" x="892.8" y="143.5" width="24" height="24" rx="6" style="animation-delay:-3.44s"/>
    <rect class="d t0" x="929.6" y="143.5" width="24" height="24" rx="6" style="animation-delay:-3.58s"/>
    <g class="sweep"><rect x="0" y="8" width="320" height="184" fill="url(#sweep)"/></g>
    <rect class="scan" x="8" y="-4" width="984" height="208" fill="url(#sl)"/>
    <rect x="8" y="8" width="984" height="184" rx="10" fill="url(#vig)"/>
  </g>
</g>
</svg>
